# File created by Blade
# Date/Time:  Tue Jan 27 19:54:25 2015
# Frame Rate: 120.000 fps
#------------------------------------------------------
:FULLY-SPECIFIED
:DEGREES
2621
root 8.115672 32.656213 0.218530 1.148193 -27.098426 -15.536593
Spine 10.392533 14.799150 15.038108
Head 5.016354 -1.012177 -1.560561
LeftShoulder -16.613792 -0.496001 27.300646
LeftArm 1.639569 -11.307701 -83.785546
LeftForeArm -47.526922 -0.000000 133.642817
LeftHand 4.229499 0.000000 -34.050811
LeftHandThumb1 -26.253704 0.000000 33.147579
RightShoulder -14.882299 -16.393965 -26.446493
RightArm 6.265291 -12.082774 76.989364
RightForeArm -19.403448 -0.000000 18.217917
RightHand 17.627258 -0.000000 10.051123
RightHandThumb1 -24.326973 -0.000000 -32.862282
LeftUpLeg 7.709069 14.492776 1.663060
LeftLeg 4.186798 -0.000000 -0.000000
LeftFoot -26.370331 27.563134 -18.173323
LeftToeBase 19.744022 -0.000000 -0.000000
RightUpLeg -76.034075 -40.020966 5.378567
RightLeg 114.480681 -0.000000 -0.000000
RightFoot 27.947158 -25.069043 21.818082
RightToeBase 12.930710 -0.000000 -0.000000
2622
root 8.117345 32.646305 0.224129 1.011294 -27.140248 -15.410000
Spine 10.437607 14.708689 14.875563
Head 5.045202 -0.887677 -1.595830
LeftShoulder -16.660677 -0.490752 27.284442
LeftArm 1.682060 -11.576278 -83.778290
LeftForeArm -47.720167 -0.000000 133.599551
LeftHand 3.998986 -0.000000 -34.470354
LeftHandThumb1 -26.253704 0.000000 33.147579
RightShoulder -14.851147 -16.353029 -26.457006
RightArm 6.287853 -12.087224 76.980222
RightForeArm -19.329409 -0.000000 18.221887
RightHand 17.634867 -0.000000 10.018447
RightHandThumb1 -24.326973 -0.000000 -32.862282
LeftUpLeg 7.825716 14.579904 1.567049
LeftLeg 4.143610 -0.000000 -0.000000
LeftFoot -26.354831 27.541996 -18.159742
LeftToeBase 19.761413 -0.000000 -0.000000
RightUpLeg -76.977743 -40.211034 6.694620
RightLeg 114.312757 -0.000000 -0.000000
RightFoot 27.783799 -25.613949 22.049819
RightToeBase 12.588060 -0.000000 -0.000000
2623
root 8.118711 32.635107 0.231016 0.848151 -27.185621 -15.278622
Spine 10.513038 14.661886 14.717954
Head 5.072900 -0.797895 -1.607086
LeftShoulder -16.666428 -0.545593 27.282005
LeftArm 1.670971 -11.823551 -83.778966
LeftForeArm -47.829174 -0.000000 133.572232
LeftHand 3.918515 -0.000000 -34.129067
LeftHandThumb1 -26.253704 0.000000 33.147579
RightShoulder -14.851826 -16.321379 -26.457658
RightArm 6.309326 -12.063354 76.979352
RightForeArm -19.280658 0.000000 18.194994
RightHand 17.662349 0.000000 10.048105
RightHandThumb1 -24.326973 -0.000000 -32.862282
LeftUpLeg 7.966975 14.648965 1.469690
LeftLeg 4.104660 -0.000000 -0.000000
LeftFoot -26.347927 27.535946 -18.160532
LeftToeBase 19.744656 -0.000000 -0.000000
RightUpLeg -77.939897 -40.422383 8.053784
RightLeg 114.159999 -0.000000 -0.000000
RightFoot 27.267364 -26.168541 22.710422
RightToeBase 12.962219 -0.000000 -0.000000
2624
root 8.120282 32.625038 0.236014 0.703436 -27.239761 -15.170795
Spine 10.587881 14.630886 14.589111
Head 5.106745 -0.730237 -1.621220
LeftShoulder -16.666931 -0.669845 27.283993
LeftArm 1.586327 -12.070979 -83.744442
LeftForeArm -47.855337 -0.000000 133.547379
LeftHand 3.887651 -0.000000 -33.978648
LeftHandThumb1 -26.253704 0.000000 33.147579
RightShoulder -14.845288 -16.292767 -26.458402
RightArm 6.318150 -12.023079 76.980791
RightForeArm -19.298653 -0.000000 18.182766
RightHand 17.663326 -0.000000 10.019184
RightHandThumb1 -24.326973 -0.000000 -32.862282
LeftUpLeg 8.083602 14.814641 1.408049
LeftLeg 4.103728 -0.000000 -0.000000
LeftFoot -26.338403 27.459018 -18.134424
LeftToeBase 19.661852 -0.000000 -0.000000
RightUpLeg -78.988426 -40.631410 9.541168
RightLeg 113.993158 -0.000000 -0.000000
RightFoot 26.813203 -26.643602 23.245503
RightToeBase 13.252589 -0.000000 -0.000000
